<?xml version="1.0" encoding="UTF-8" standalone="no"?>
<!DOCTYPE svg PUBLIC "-//W3C//DTD SVG 1.1//EN" "http://www.w3.org/Graphics/SVG/1.1/DTD/svg11.dtd">
<svg width="100%" height="100%" viewBox="0 0 866 424" version="1.1" xmlns="http://www.w3.org/2000/svg" xmlns:xlink="http://www.w3.org/1999/xlink" xml:space="preserve" xmlns:serif="http://www.serif.com/" style="fill-rule:evenodd;clip-rule:evenodd;stroke-linejoin:round;stroke-miterlimit:1.41421;">
    <g id="Artboard1" transform="matrix(1.43662,0,0,1.13511,-215.502,-207.289)">
        <rect x="150.006" y="182.616" width="602.493" height="373.493" style="fill:none;"/>
        <g id="Layer-1" serif:id="Layer 1" transform="matrix(2.90033,0,0,3.67071,40.5656,11.9262)">
            <g transform="matrix(1,0,0,1,137.364,59.1117)">
                <path d="M0,50.595L-8.22,50.595L-8.22,28.658L-10.989,28.658L-10.989,21.714L-8.22,21.714L-8.22,13.246C-8.22,6.179 -5.29,0 2.646,0C3.99,0 5.354,0.297 6.586,0.947L6.586,8.298C5.523,7.763 4.471,7.303 3.236,7.303C-0.406,7.303 0,12.065 0,14.424L0,21.714L6.586,21.714L6.586,28.658L0,28.658L0,50.595Z" style="fill:rgb(3,5,5);fill-rule:nonzero;"/>
            </g>
            <g transform="matrix(1,0,0,1,167.22,95.3031)">
                <path d="M0,-0.074C0,-3.952 -2.64,-8.122 -6.87,-8.122C-11.107,-8.122 -13.696,-3.952 -13.696,-0.074C-13.696,3.818 -11.107,8.048 -6.87,8.048C-2.64,8.048 0,3.818 0,-0.074M7.293,14.404L-0.812,14.404L-0.812,11.764L-0.934,11.764C-2.693,14.052 -5.753,15.345 -8.762,15.345C-17.212,15.345 -22.039,7.642 -22.039,-0.19C-22.039,-7.824 -17.155,-15.419 -8.866,-15.419C-5.875,-15.419 -2.815,-14.123 -0.812,-11.77L-0.812,-14.478L7.293,-14.478L7.293,14.404Z" style="fill:rgb(3,5,5);fill-rule:nonzero;"/>
            </g>
            <g transform="matrix(1,0,0,1,189.276,105.771)">
                <path d="M0,-21.951L0.111,-21.951C1.757,-24.478 4.234,-25.887 7.286,-25.887C8.457,-25.887 9.636,-25.596 10.698,-25.176L9.696,-17.534C8.697,-18.248 7.517,-18.59 6.284,-18.59C0.582,-18.59 0,-13.534 0,-9.06L0,3.936L-8.234,3.936L-8.234,-24.946L0,-24.946L0,-21.951Z" style="fill:rgb(3,5,5);fill-rule:nonzero;"/>
            </g>
            <g transform="matrix(1,0,0,1,236.024,108.765)">
                <path d="M0,-27.94L8.233,-27.94L8.233,0.941L0,0.941L0,-13.239C0,-16.298 0.243,-22.295 -4.346,-22.295C-8.644,-22.295 -8.292,-16.528 -8.292,-13.719L-8.292,0.941L-16.522,0.941L-16.522,-13.239C-16.522,-16.244 -16.465,-22.295 -20.929,-22.295C-24.983,-22.295 -24.804,-17.063 -24.804,-14.241L-24.804,0.941L-33.031,0.941L-33.031,-17.063C-33.031,-23.351 -31.207,-28.881 -23.859,-28.881C-20.517,-28.881 -17.233,-27.175 -15.456,-24.353C-13.582,-27.412 -10.756,-28.881 -7.168,-28.881C-4.525,-28.881 -1.699,-27.653 -0.115,-25.361L0,-25.361L0,-27.94Z" style="fill:rgb(3,5,5);fill-rule:nonzero;"/>
            </g>
            <g transform="matrix(1,0,0,1,112.783,111.202)">
                <path d="M0,-1.11C0.574,-1.11 1.584,-1 1.584,-1.735C1.584,-2.213 0.955,-2.299 0.457,-2.299L-0.778,-2.299L-0.778,-1.11L0,-1.11ZM2.167,1.675L1.389,1.675L0,-0.456L-0.778,-0.456L-0.778,1.675L-1.429,1.675L-1.429,-2.952L0.588,-2.952C1.419,-2.952 2.234,-2.722 2.234,-1.725C2.234,-0.816 1.594,-0.481 0.771,-0.456L2.167,1.675ZM3.807,-0.552C3.807,-2.547 2.149,-4.132 0.211,-4.132C-1.731,-4.132 -3.392,-2.547 -3.392,-0.552C-3.392,1.441 -1.731,3.023 0.211,3.023C2.149,3.023 3.807,1.441 3.807,-0.552M-4.042,-0.552C-4.042,-2.906 -2.163,-4.78 0.211,-4.78C2.581,-4.78 4.459,-2.906 4.459,-0.552C4.459,1.797 2.581,3.67 0.211,3.67C-2.163,3.67 -4.042,1.797 -4.042,-0.552" style="fill:rgb(127,127,128);fill-rule:nonzero;"/>
            </g>
            <g transform="matrix(1,0,0,1,83.031,65.4683)">
                <path d="M0,37.045L-11.945,40.759L-23.86,2.484L5.416,-6.632L7.985,1.609L-9.359,7.007L-7.29,13.639L7.489,9.035L9.908,16.806L-4.867,21.41L0,37.045ZM-8.556,-17.731C-28.571,-17.731 -44.801,-1.496 -44.801,18.525C-44.801,38.537 -28.571,54.776 -8.556,54.776C11.474,54.776 27.706,38.537 27.706,18.525C27.706,-1.496 11.474,-17.731 -8.556,-17.731" style="fill:rgb(242,139,4);fill-rule:nonzero;"/>
            </g>
            <g transform="matrix(1,0,0,1,107.19,135.953)">
                <path d="M0,1.984L-2.611,-4.268L-5.277,1.984L0,1.984ZM-5.792,3.216L-7.778,7.796L-9.194,7.796L-3.383,-5.812L-1.857,-5.812L3.99,7.796L2.501,7.796L0.533,3.216L-5.792,3.216Z" style="fill:rgb(95,100,106);fill-rule:nonzero;"/>
            </g>
            <g transform="matrix(1,0,0,1,124.64,143.748)">
                <path d="M0,-13.607L0,-12.376L-5.517,-12.376L-5.517,-7.447L-0.202,-7.447L-0.202,-6.215L-5.517,-6.215L-5.517,0L-6.877,0L-6.877,-13.607L0,-13.607Z" style="fill:rgb(95,100,106);fill-rule:nonzero;"/>
            </g>
            <g transform="matrix(-1,-0,-0,1,254.465,84.207)">
                <rect x="126.589" y="45.935" width="1.287" height="13.607" style="fill:rgb(95,100,106);"/>
            </g>
            <g transform="matrix(1,0,0,1,134.992,142.828)">
                <path d="M0,-8.237C-0.625,-8.237 -1.213,-8.092 -1.765,-7.805C-2.317,-7.517 -2.783,-7.112 -3.162,-6.591C-3.543,-6.07 -3.788,-5.472 -3.898,-4.799L3.954,-4.799C3.77,-5.816 3.313,-6.644 2.584,-7.282C1.854,-7.919 0.993,-8.237 0,-8.237M0,0C0.797,0 1.529,-0.214 2.198,-0.643C2.866,-1.072 3.334,-1.648 3.604,-2.372L4.965,-2.372C4.585,-1.305 3.938,-0.45 3.025,0.194C2.112,0.837 1.11,1.159 0.019,1.159C-0.926,1.159 -1.799,0.926 -2.602,0.46C-3.405,-0.006 -4.042,-0.643 -4.514,-1.453C-4.986,-2.261 -5.222,-3.143 -5.222,-4.1C-5.222,-5.056 -4.983,-5.938 -4.505,-6.749C-4.026,-7.557 -3.387,-8.201 -2.583,-8.679C-1.781,-9.157 -0.919,-9.396 0,-9.396C0.981,-9.396 1.873,-9.144 2.676,-8.642C3.478,-8.139 4.113,-7.474 4.579,-6.647C5.045,-5.819 5.278,-4.946 5.278,-4.027L5.26,-3.64L-3.898,-3.64C-3.861,-2.99 -3.656,-2.386 -3.282,-1.829C-2.909,-1.271 -2.427,-0.827 -1.838,-0.496C-1.25,-0.165 -0.638,0 0,0" style="fill:rgb(95,100,106);fill-rule:nonzero;"/>
            </g>
            <g transform="matrix(1,0,0,1,142.77,133.69)">
                <path d="M0,10.059L-1.526,10.059L1.912,4.947L-1.526,0L0.019,0L2.667,3.88L5.296,0L6.859,0L3.42,4.947L6.859,10.059L5.333,10.059L2.667,6.032L0,10.059Z" style="fill:rgb(95,100,106);fill-rule:nonzero;"/>
            </g>
            <g transform="matrix(1,0,0,1,162.85,129.921)">
                <path d="M0,14.067C-1.275,14.067 -2.458,13.757 -3.549,13.138C-4.641,12.519 -5.507,11.671 -6.15,10.591C-6.795,9.512 -7.116,8.33 -7.116,7.043C-7.116,5.743 -6.798,4.554 -6.16,3.475C-5.522,2.397 -4.662,1.547 -3.576,0.928C-2.492,0.309 -1.306,0 -0.019,0C0.815,0 1.646,0.153 2.474,0.459C3.301,0.766 4.042,1.202 4.698,1.764C5.354,2.329 5.859,2.978 6.215,3.714L4.689,3.714C4.174,2.942 3.49,2.335 2.639,1.893C1.787,1.452 0.895,1.231 -0.036,1.231C-1.029,1.231 -1.967,1.499 -2.851,2.032C-3.732,2.565 -4.438,3.279 -4.965,4.173C-5.492,5.068 -5.756,6.031 -5.756,7.06C-5.756,8.053 -5.489,8.998 -4.956,9.892C-4.423,10.788 -3.715,11.501 -2.831,12.034C-1.949,12.568 -1.012,12.835 -0.019,12.835C0.901,12.835 1.768,12.611 2.584,12.163C3.398,11.715 4.119,11.082 4.744,10.26L6.271,10.26C5.608,11.45 4.719,12.381 3.604,13.055C2.488,13.729 1.287,14.067 0,14.067" style="fill:rgb(95,100,106);fill-rule:nonzero;"/>
            </g>
            <g transform="matrix(1,0,0,1,179.896,138.765)">
                <path d="M0,-0.11C0,-0.833 -0.178,-1.505 -0.533,-2.124C-0.889,-2.743 -1.373,-3.239 -1.986,-3.613C-2.6,-3.987 -3.268,-4.173 -3.99,-4.173C-4.702,-4.173 -5.36,-3.983 -5.968,-3.603C-6.574,-3.223 -7.056,-2.714 -7.411,-2.077C-7.767,-1.44 -7.944,-0.747 -7.944,0C-7.944,0.724 -7.767,1.398 -7.411,2.023C-7.056,2.649 -6.571,3.145 -5.958,3.512C-5.345,3.88 -4.683,4.064 -3.972,4.064C-3.236,4.064 -2.565,3.877 -1.958,3.503C-1.352,3.129 -0.874,2.623 -0.524,1.987C-0.175,1.349 0,0.651 0,-0.11M-9.23,0.019C-9.23,-0.95 -8.992,-1.844 -8.515,-2.666C-8.036,-3.487 -7.396,-4.137 -6.593,-4.616C-5.79,-5.093 -4.923,-5.333 -3.99,-5.333C-3.034,-5.333 -2.152,-5.09 -1.343,-4.606C-0.533,-4.122 0.106,-3.475 0.579,-2.666C1.051,-1.857 1.287,-0.986 1.287,-0.055C1.287,0.901 1.045,1.785 0.561,2.593C0.076,3.402 -0.57,4.042 -1.38,4.514C-2.188,4.987 -3.059,5.223 -3.99,5.223C-4.923,5.223 -5.79,4.984 -6.593,4.505C-7.396,4.028 -8.036,3.39 -8.515,2.593C-8.992,1.796 -9.23,0.938 -9.23,0.019" style="fill:rgb(95,100,106);fill-rule:nonzero;"/>
            </g>
            <g transform="matrix(1,0,0,1,193.944,142.589)">
                <path d="M0,-7.998C-0.87,-7.998 -1.544,-7.701 -2.022,-7.106C-2.501,-6.512 -2.739,-5.712 -2.739,-4.707L-2.739,1.159L-4.027,1.159L-4.027,-4.726C-4.027,-5.73 -4.266,-6.527 -4.744,-7.116C-5.223,-7.704 -5.896,-7.998 -6.767,-7.998C-7.638,-7.998 -8.312,-7.704 -8.789,-7.116C-9.268,-6.527 -9.507,-5.73 -9.507,-4.726L-9.507,1.159L-10.794,1.159L-10.794,-8.899L-9.507,-8.899L-9.507,-7.741C-9.213,-8.207 -8.823,-8.56 -8.339,-8.799C-7.854,-9.037 -7.331,-9.157 -6.767,-9.157C-6.044,-9.157 -5.388,-8.991 -4.799,-8.66C-4.211,-8.329 -3.739,-7.852 -3.384,-7.226C-2.563,-8.514 -1.435,-9.157 0,-9.157C0.833,-9.157 1.554,-8.967 2.16,-8.587C2.768,-8.207 3.23,-7.692 3.549,-7.043C3.867,-6.393 4.027,-5.669 4.027,-4.872L4.027,1.159L2.739,1.159L2.739,-4.744C2.739,-5.736 2.503,-6.527 2.032,-7.116C1.561,-7.704 0.883,-7.998 0,-7.998" style="fill:rgb(95,100,106);fill-rule:nonzero;"/>
            </g>
            <g transform="matrix(1,0,0,1,205.584,146.12)">
                <path d="M0,-11.529C-0.711,-11.529 -1.376,-11.345 -1.995,-10.978C-2.614,-10.61 -3.104,-10.107 -3.466,-9.47C-3.828,-8.833 -4.009,-8.139 -4.009,-7.392C-4.009,-6.657 -3.831,-5.972 -3.476,-5.342C-3.12,-4.711 -2.636,-4.211 -2.022,-3.843C-1.409,-3.475 -0.729,-3.292 0.019,-3.292C0.803,-3.292 1.508,-3.472 2.134,-3.835C2.758,-4.195 3.249,-4.686 3.604,-5.305C3.96,-5.924 4.138,-6.613 4.138,-7.374C4.138,-8.146 3.963,-8.847 3.613,-9.479C3.264,-10.111 2.773,-10.61 2.143,-10.978C1.511,-11.345 0.797,-11.529 0,-11.529M-3.936,-12.43L-3.936,-10.665L-3.898,-10.665C-3.433,-11.327 -2.865,-11.83 -2.197,-12.174C-1.529,-12.516 -0.79,-12.688 0.019,-12.688C1.023,-12.688 1.937,-12.455 2.758,-11.989C3.58,-11.523 4.229,-10.885 4.707,-10.077C5.186,-9.267 5.425,-8.385 5.425,-7.428C5.425,-6.448 5.188,-5.556 4.717,-4.753C4.245,-3.951 3.598,-3.313 2.776,-2.841C1.955,-2.369 1.036,-2.133 0.019,-2.133C-0.778,-2.133 -1.521,-2.305 -2.207,-2.648C-2.894,-2.991 -3.457,-3.488 -3.898,-4.137L-3.936,-4.137L-3.936,1.159L-5.222,1.159L-5.222,-12.43L-3.936,-12.43Z" style="fill:rgb(95,100,106);fill-rule:nonzero;"/>
            </g>
            <g transform="matrix(1,0,0,1,221.931,138.692)">
                <path d="M0,0.036C0,-0.699 -0.178,-1.386 -0.533,-2.024C-0.889,-2.66 -1.377,-3.166 -1.996,-3.54C-2.615,-3.914 -3.299,-4.101 -4.046,-4.101C-4.806,-4.101 -5.499,-3.92 -6.123,-3.559C-6.749,-3.196 -7.243,-2.7 -7.604,-2.069C-7.966,-1.438 -8.146,-0.73 -8.146,0.055C-8.146,0.815 -7.969,1.507 -7.613,2.133C-7.258,2.758 -6.765,3.248 -6.133,3.603C-5.502,3.959 -4.8,4.137 -4.027,4.137C-3.292,4.137 -2.618,3.953 -2.005,3.585C-1.393,3.218 -0.905,2.722 -0.543,2.096C-0.182,1.471 0,0.784 0,0.036M-0.111,3.291C-0.528,3.916 -1.079,4.407 -1.766,4.763C-2.452,5.117 -3.206,5.296 -4.027,5.296C-5.021,5.296 -5.931,5.062 -6.759,4.597C-7.586,4.131 -8.238,3.496 -8.717,2.693C-9.194,1.89 -9.434,0.993 -9.434,0C-9.434,-0.982 -9.188,-1.873 -8.698,-2.676C-8.208,-3.479 -7.549,-4.11 -6.722,-4.57C-5.894,-5.03 -4.996,-5.26 -4.027,-5.26C-3.194,-5.26 -2.435,-5.081 -1.747,-4.726C-1.062,-4.37 -0.516,-3.874 -0.111,-3.236L-0.074,-3.236L-0.074,-5.002L1.213,-5.002L1.213,5.057L-0.074,5.057L-0.074,3.291L-0.111,3.291Z" style="fill:rgb(95,100,106);fill-rule:nonzero;"/>
            </g>
            <g transform="matrix(1,0,0,1,229.911,142.589)">
                <path d="M0,-7.998C-0.956,-7.998 -1.72,-7.674 -2.289,-7.023C-2.859,-6.374 -3.145,-5.546 -3.145,-4.542L-3.145,1.159L-4.432,1.159L-4.432,-8.899L-3.145,-8.899L-3.145,-7.612L-3.107,-7.612C-2.789,-8.102 -2.356,-8.482 -1.811,-8.752C-1.266,-9.022 -0.668,-9.157 -0.018,-9.157C0.889,-9.157 1.677,-8.961 2.345,-8.568C3.013,-8.176 3.524,-7.625 3.88,-6.914C4.235,-6.203 4.413,-5.381 4.413,-4.45L4.413,1.159L3.126,1.159L3.126,-4.45C3.126,-5.185 2.991,-5.819 2.722,-6.352C2.451,-6.886 2.078,-7.294 1.6,-7.576C1.122,-7.857 0.589,-7.998 0,-7.998" style="fill:rgb(95,100,106);fill-rule:nonzero;"/>
            </g>
            <g transform="matrix(1,0,0,1,235.777,147.279)">
                <path d="M0,-13.589L1.36,-13.589L4.561,-5.572L7.979,-13.589L9.341,-13.589L3.512,0L2.17,0L3.916,-3.861L0,-13.589Z" style="fill:rgb(95,100,106);fill-rule:nonzero;"/>
            </g>
        </g>
    </g>
</svg>
