<svg width="112" height="17" viewBox="0 0 112 17" fill="none" xmlns="http://www.w3.org/2000/svg">
<path d="M7.22265 9.87849H11.745V13.524C10.5815 14.1389 9.24236 14.6879 7.06898 14.6879C4.237 14.6879 1.9319 13.1946 1.9319 10.713V6.51849C1.9319 4.12477 4.36872 2.67536 7.2007 2.67536C9.24236 2.67536 11.1304 3.22438 12.3817 4.08085L13.172 2.63144C11.767 1.6432 9.5058 0.984375 7.13484 0.984375C3.27105 0.984375 0 3.02673 0 6.34281V10.8887C0 14.2048 3.07347 16.3569 7.06898 16.3569C10.1644 16.3569 12.1402 15.4565 13.6769 14.5561V8.27536H7.22265V9.87849Z" fill="white"/>
<path d="M30.3471 5.79379V5.26673C30.3471 2.71928 28.3274 1.20398 25.2539 1.20398H17.5702V16.1373H19.4802V9.92242H24.9027L28.5689 16.1373H30.6764L26.7467 9.50516C28.8543 9.08791 30.3471 7.8581 30.3471 5.79379ZM19.4802 2.89496H25.1222C27.1199 2.89496 28.4371 3.8832 28.4371 5.35457V5.90359C28.4371 7.48477 26.8565 8.27536 25.2759 8.31928H19.4802V2.89496Z" fill="white"/>
<path d="M39.0703 1.0283L32.4184 16.1373H34.5479L36.4798 11.7452H43.6585L45.5904 16.1373H47.698L41.1339 1.0283H39.0703ZM36.9408 10.164L40.1021 3.13653L43.1975 10.164H36.9408Z" fill="white"/>
<path d="M62.6792 5.42045V5.02516C62.6792 2.58751 60.7473 1.20398 57.5641 1.20398H50.6927V16.1373H58.091C61.2303 16.1373 63.25 14.8636 63.25 12.4479V11.811C63.25 10.0981 61.9767 8.93418 60.0009 8.38516C61.6255 7.96791 62.6792 6.71614 62.6792 5.42045ZM61.3181 12.2942C61.3181 13.8973 59.9131 14.5561 57.8934 14.5561H52.6246V9.21967H57.6958C59.7375 9.21967 61.3181 10.0761 61.3181 11.6573V12.2942ZM52.6246 2.80712H57.3446C59.6277 2.80712 60.7912 3.44398 60.7912 5.113V5.5083C60.7912 6.91379 59.4521 7.72634 57.586 7.72634H52.6246V2.80712Z" fill="white"/>
<path d="M73.2266 3.81732C75.0707 3.81732 76.4098 4.21261 77.5734 4.8934L78.8028 2.47771C77.1563 1.40163 75.5317 0.984375 73.0071 0.984375C69.275 0.984375 66.0918 3.07065 66.0918 6.49653V10.8228C66.0918 14.5122 69.0335 16.3569 73.029 16.3569C75.5976 16.3569 77.0684 15.9836 78.6491 15.0173L77.5295 12.5357C76.4099 13.2385 74.917 13.5459 73.2486 13.5459C71.0532 13.5459 69.4287 12.6895 69.4287 10.6471V6.69418C69.4287 4.84947 71.2069 3.81732 73.2266 3.81732Z" fill="white"/>
<path d="M86.1294 1.09418L80.0922 16.1373H83.8023L85.0756 12.8871H90.8932L92.1665 16.1373H95.8766L89.8395 1.09418H86.1294ZM85.7122 10.3397L87.9954 4.3883L90.2566 10.3397H85.7122Z" fill="white"/>
<path d="M98.2133 1.20398V16.1373H104.975C108.883 16.1373 112 14.3585 112 10.4495V6.91379C112 3.00477 109.19 1.20398 105.216 1.20398H98.2133ZM108.685 9.87849C108.685 12.404 106.951 13.4142 104.975 13.4142H101.506V3.94908H105.216C107.17 3.94908 108.685 5.04712 108.685 7.48477V9.87849Z" fill="white"/>
</svg>
